<mxfile host="app.diagrams.net" modified="2022-11-03T14:45:23.515Z" agent="5.0 (Windows NT 10.0; Win64; x64) AppleWebKit/537.36 (KHTML, like Gecko) Chrome/103.0.0.0 Safari/537.36" etag="bvWzzKgbnjuJhDcG2HX4" version="20.5.1" type="github">
  <diagram id="C5RBs43oDa-KdzZeNtuy" name="Page-1">
    <mxGraphModel dx="833" dy="510" grid="1" gridSize="10" guides="1" tooltips="1" connect="1" arrows="1" fold="1" page="1" pageScale="1" pageWidth="827" pageHeight="1169" math="0" shadow="0">
      <root>
        <mxCell id="WIyWlLk6GJQsqaUBKTNV-0" />
        <mxCell id="WIyWlLk6GJQsqaUBKTNV-1" parent="WIyWlLk6GJQsqaUBKTNV-0" />
        <mxCell id="F2qtS_eHZTGyBxAvlqVW-5" style="edgeStyle=orthogonalEdgeStyle;rounded=0;orthogonalLoop=1;jettySize=auto;html=1;entryX=0.5;entryY=0;entryDx=0;entryDy=0;fontFamily=Times New Roman;" edge="1" parent="WIyWlLk6GJQsqaUBKTNV-1" source="WIyWlLk6GJQsqaUBKTNV-3" target="F2qtS_eHZTGyBxAvlqVW-4">
          <mxGeometry relative="1" as="geometry" />
        </mxCell>
        <mxCell id="WIyWlLk6GJQsqaUBKTNV-3" value="&lt;font&gt;程序开始运行&lt;/font&gt;" style="rounded=1;whiteSpace=wrap;html=1;fontSize=12;glass=0;strokeWidth=1;shadow=0;fontFamily=Times New Roman;" parent="WIyWlLk6GJQsqaUBKTNV-1" vertex="1">
          <mxGeometry x="580" y="100" width="120" height="40" as="geometry" />
        </mxCell>
        <mxCell id="F2qtS_eHZTGyBxAvlqVW-9" style="edgeStyle=orthogonalEdgeStyle;rounded=0;orthogonalLoop=1;jettySize=auto;html=1;fontFamily=Times New Roman;" edge="1" parent="WIyWlLk6GJQsqaUBKTNV-1" source="F2qtS_eHZTGyBxAvlqVW-4" target="F2qtS_eHZTGyBxAvlqVW-8">
          <mxGeometry relative="1" as="geometry" />
        </mxCell>
        <mxCell id="F2qtS_eHZTGyBxAvlqVW-4" value="打开玩家数据&lt;br&gt;存储文件" style="shape=parallelogram;perimeter=parallelogramPerimeter;whiteSpace=wrap;html=1;fixedSize=1;fontFamily=Times New Roman;" vertex="1" parent="WIyWlLk6GJQsqaUBKTNV-1">
          <mxGeometry x="580" y="170" width="120" height="50" as="geometry" />
        </mxCell>
        <mxCell id="F2qtS_eHZTGyBxAvlqVW-13" style="edgeStyle=orthogonalEdgeStyle;rounded=0;orthogonalLoop=1;jettySize=auto;html=1;entryX=1;entryY=0.5;entryDx=0;entryDy=0;fontFamily=Times New Roman;exitX=1;exitY=0.5;exitDx=0;exitDy=0;" edge="1" parent="WIyWlLk6GJQsqaUBKTNV-1" source="F2qtS_eHZTGyBxAvlqVW-8" target="F2qtS_eHZTGyBxAvlqVW-12">
          <mxGeometry relative="1" as="geometry">
            <mxPoint x="695" y="276" as="sourcePoint" />
            <Array as="points">
              <mxPoint x="740" y="275" />
              <mxPoint x="740" y="820" />
              <mxPoint x="690" y="820" />
            </Array>
          </mxGeometry>
        </mxCell>
        <mxCell id="F2qtS_eHZTGyBxAvlqVW-15" style="edgeStyle=orthogonalEdgeStyle;rounded=0;orthogonalLoop=1;jettySize=auto;html=1;fontFamily=Times New Roman;" edge="1" parent="WIyWlLk6GJQsqaUBKTNV-1" source="F2qtS_eHZTGyBxAvlqVW-8" target="F2qtS_eHZTGyBxAvlqVW-14">
          <mxGeometry relative="1" as="geometry" />
        </mxCell>
        <mxCell id="F2qtS_eHZTGyBxAvlqVW-8" value="能否打开" style="rhombus;whiteSpace=wrap;html=1;fontFamily=Times New Roman;" vertex="1" parent="WIyWlLk6GJQsqaUBKTNV-1">
          <mxGeometry x="585" y="250" width="110" height="50" as="geometry" />
        </mxCell>
        <mxCell id="F2qtS_eHZTGyBxAvlqVW-12" value="结束" style="rounded=1;whiteSpace=wrap;html=1;fontFamily=Times New Roman;" vertex="1" parent="WIyWlLk6GJQsqaUBKTNV-1">
          <mxGeometry x="600" y="800" width="80" height="39" as="geometry" />
        </mxCell>
        <mxCell id="F2qtS_eHZTGyBxAvlqVW-28" style="edgeStyle=orthogonalEdgeStyle;rounded=0;orthogonalLoop=1;jettySize=auto;html=1;fontFamily=Times New Roman;" edge="1" parent="WIyWlLk6GJQsqaUBKTNV-1" source="F2qtS_eHZTGyBxAvlqVW-14" target="F2qtS_eHZTGyBxAvlqVW-16">
          <mxGeometry relative="1" as="geometry" />
        </mxCell>
        <mxCell id="F2qtS_eHZTGyBxAvlqVW-14" value="申请空间并&lt;br&gt;读入玩家数据" style="rounded=0;whiteSpace=wrap;html=1;fontFamily=Times New Roman;" vertex="1" parent="WIyWlLk6GJQsqaUBKTNV-1">
          <mxGeometry x="595" y="331" width="90" height="40" as="geometry" />
        </mxCell>
        <mxCell id="F2qtS_eHZTGyBxAvlqVW-27" style="edgeStyle=orthogonalEdgeStyle;rounded=0;orthogonalLoop=1;jettySize=auto;html=1;entryX=0.5;entryY=0;entryDx=0;entryDy=0;fontFamily=Times New Roman;" edge="1" parent="WIyWlLk6GJQsqaUBKTNV-1" source="F2qtS_eHZTGyBxAvlqVW-16" target="F2qtS_eHZTGyBxAvlqVW-21">
          <mxGeometry relative="1" as="geometry" />
        </mxCell>
        <mxCell id="F2qtS_eHZTGyBxAvlqVW-16" value="玩家输入id&lt;br&gt;和密码" style="shape=parallelogram;perimeter=parallelogramPerimeter;whiteSpace=wrap;html=1;fixedSize=1;fontFamily=Times New Roman;aspect=fixed;" vertex="1" parent="WIyWlLk6GJQsqaUBKTNV-1">
          <mxGeometry x="590" y="412" width="100" height="50" as="geometry" />
        </mxCell>
        <mxCell id="F2qtS_eHZTGyBxAvlqVW-21" value="搜索玩家id&lt;br&gt;是否存在" style="rhombus;whiteSpace=wrap;html=1;fontFamily=Times New Roman;" vertex="1" parent="WIyWlLk6GJQsqaUBKTNV-1">
          <mxGeometry x="590" y="502" width="100" height="60" as="geometry" />
        </mxCell>
        <mxCell id="F2qtS_eHZTGyBxAvlqVW-22" value="判断密码&lt;br&gt;是否正确" style="rhombus;whiteSpace=wrap;html=1;fontFamily=Times New Roman;" vertex="1" parent="WIyWlLk6GJQsqaUBKTNV-1">
          <mxGeometry x="590" y="600" width="100" height="80" as="geometry" />
        </mxCell>
        <mxCell id="F2qtS_eHZTGyBxAvlqVW-24" style="edgeStyle=orthogonalEdgeStyle;rounded=0;orthogonalLoop=1;jettySize=auto;html=1;entryX=0.5;entryY=0;entryDx=0;entryDy=0;fontFamily=Times New Roman;" edge="1" parent="WIyWlLk6GJQsqaUBKTNV-1" source="F2qtS_eHZTGyBxAvlqVW-23" target="F2qtS_eHZTGyBxAvlqVW-12">
          <mxGeometry relative="1" as="geometry" />
        </mxCell>
        <mxCell id="F2qtS_eHZTGyBxAvlqVW-23" value="显示游戏大厅界面" style="shape=parallelogram;perimeter=parallelogramPerimeter;whiteSpace=wrap;html=1;fixedSize=1;fontFamily=Times New Roman;fontSize=12;fontColor=default;align=center;strokeColor=default;fillColor=default;" vertex="1" parent="WIyWlLk6GJQsqaUBKTNV-1">
          <mxGeometry x="580" y="720" width="120" height="40" as="geometry" />
        </mxCell>
        <mxCell id="F2qtS_eHZTGyBxAvlqVW-31" value="" style="endArrow=classic;html=1;rounded=0;fontFamily=Times New Roman;exitX=0.5;exitY=1;exitDx=0;exitDy=0;entryX=0.5;entryY=0;entryDx=0;entryDy=0;" edge="1" parent="WIyWlLk6GJQsqaUBKTNV-1" source="F2qtS_eHZTGyBxAvlqVW-21" target="F2qtS_eHZTGyBxAvlqVW-22">
          <mxGeometry relative="1" as="geometry">
            <mxPoint x="620" y="592" as="sourcePoint" />
            <mxPoint x="720" y="592" as="targetPoint" />
          </mxGeometry>
        </mxCell>
        <mxCell id="F2qtS_eHZTGyBxAvlqVW-32" value="是" style="edgeLabel;resizable=0;html=1;align=center;verticalAlign=middle;fontFamily=Times New Roman;" connectable="0" vertex="1" parent="F2qtS_eHZTGyBxAvlqVW-31">
          <mxGeometry relative="1" as="geometry" />
        </mxCell>
        <mxCell id="F2qtS_eHZTGyBxAvlqVW-40" value="" style="endArrow=none;html=1;rounded=0;fontFamily=Times New Roman;exitX=0;exitY=0.5;exitDx=0;exitDy=0;edgeStyle=orthogonalEdgeStyle;endFill=0;" edge="1" parent="WIyWlLk6GJQsqaUBKTNV-1" source="F2qtS_eHZTGyBxAvlqVW-21">
          <mxGeometry relative="1" as="geometry">
            <mxPoint x="560" y="582" as="sourcePoint" />
            <mxPoint x="550" y="532" as="targetPoint" />
          </mxGeometry>
        </mxCell>
        <mxCell id="F2qtS_eHZTGyBxAvlqVW-41" value="否" style="edgeLabel;resizable=0;html=1;align=center;verticalAlign=middle;fontFamily=Times New Roman;" connectable="0" vertex="1" parent="F2qtS_eHZTGyBxAvlqVW-40">
          <mxGeometry relative="1" as="geometry">
            <mxPoint x="5" as="offset" />
          </mxGeometry>
        </mxCell>
        <mxCell id="F2qtS_eHZTGyBxAvlqVW-42" value="" style="endArrow=classic;html=1;rounded=0;fontFamily=Times New Roman;exitX=0;exitY=0.5;exitDx=0;exitDy=0;edgeStyle=elbowEdgeStyle;" edge="1" parent="WIyWlLk6GJQsqaUBKTNV-1" source="F2qtS_eHZTGyBxAvlqVW-22">
          <mxGeometry relative="1" as="geometry">
            <mxPoint x="500" y="690" as="sourcePoint" />
            <mxPoint x="640" y="390" as="targetPoint" />
            <Array as="points">
              <mxPoint x="550" y="530" />
            </Array>
          </mxGeometry>
        </mxCell>
        <mxCell id="F2qtS_eHZTGyBxAvlqVW-43" value="否" style="edgeLabel;resizable=0;html=1;align=center;verticalAlign=middle;fontFamily=Times New Roman;" connectable="0" vertex="1" parent="F2qtS_eHZTGyBxAvlqVW-42">
          <mxGeometry relative="1" as="geometry">
            <mxPoint x="20" y="150" as="offset" />
          </mxGeometry>
        </mxCell>
        <mxCell id="F2qtS_eHZTGyBxAvlqVW-46" value="提示文件&lt;br&gt;打开错误" style="shape=parallelogram;perimeter=parallelogramPerimeter;whiteSpace=wrap;html=1;fixedSize=1;fontFamily=Times New Roman;" vertex="1" parent="WIyWlLk6GJQsqaUBKTNV-1">
          <mxGeometry x="695" y="505" width="80" height="60" as="geometry" />
        </mxCell>
        <mxCell id="F2qtS_eHZTGyBxAvlqVW-50" value="显示&lt;br&gt;错误&lt;br&gt;弹窗" style="shape=parallelogram;perimeter=parallelogramPerimeter;whiteSpace=wrap;html=1;fixedSize=1;fontFamily=Times New Roman;" vertex="1" parent="WIyWlLk6GJQsqaUBKTNV-1">
          <mxGeometry x="520" y="417" width="60" height="60" as="geometry" />
        </mxCell>
        <mxCell id="F2qtS_eHZTGyBxAvlqVW-53" value="" style="endArrow=classic;html=1;rounded=0;fontFamily=Times New Roman;exitX=0.5;exitY=1;exitDx=0;exitDy=0;entryX=0.5;entryY=0;entryDx=0;entryDy=0;" edge="1" parent="WIyWlLk6GJQsqaUBKTNV-1" source="F2qtS_eHZTGyBxAvlqVW-22" target="F2qtS_eHZTGyBxAvlqVW-23">
          <mxGeometry relative="1" as="geometry">
            <mxPoint x="540" y="722" as="sourcePoint" />
            <mxPoint x="640" y="722" as="targetPoint" />
          </mxGeometry>
        </mxCell>
        <mxCell id="F2qtS_eHZTGyBxAvlqVW-54" value="是" style="edgeLabel;resizable=0;html=1;align=center;verticalAlign=middle;fontFamily=Times New Roman;" connectable="0" vertex="1" parent="F2qtS_eHZTGyBxAvlqVW-53">
          <mxGeometry relative="1" as="geometry" />
        </mxCell>
        <mxCell id="F2qtS_eHZTGyBxAvlqVW-55" value="否" style="edgeLabel;resizable=0;html=1;align=center;verticalAlign=middle;fontFamily=Times New Roman;" connectable="0" vertex="1" parent="WIyWlLk6GJQsqaUBKTNV-1">
          <mxGeometry x="590" y="565" as="geometry">
            <mxPoint x="123" y="-294" as="offset" />
          </mxGeometry>
        </mxCell>
        <mxCell id="F2qtS_eHZTGyBxAvlqVW-57" value="是" style="edgeLabel;resizable=0;html=1;align=center;verticalAlign=middle;fontFamily=Times New Roman;" connectable="0" vertex="1" parent="WIyWlLk6GJQsqaUBKTNV-1">
          <mxGeometry x="650" y="599.9975862068965" as="geometry">
            <mxPoint x="-9" y="-314" as="offset" />
          </mxGeometry>
        </mxCell>
      </root>
    </mxGraphModel>
  </diagram>
</mxfile>
